<svg width="48" height="48" viewBox="0 0 48 48" fill="none" xmlns="http://www.w3.org/2000/svg">
<path d="M20.18 37.36C29.6683 37.36 37.36 29.6683 37.36 20.18C37.36 10.6917 29.6683 3 20.18 3C10.6917 3 3 10.6917 3 20.18C3 29.6683 10.6917 37.36 20.18 37.36Z" stroke="#2DBC55" stroke-width="3" stroke-miterlimit="10"/>
<path d="M45 45L32.6 32.6" stroke="#2DBC55" stroke-width="3" stroke-miterlimit="10"/>
<path d="M14.46 29.72C14.46 28.203 15.0627 26.7481 16.1354 25.6754C17.2081 24.6027 18.663 24 20.18 24C20.9396 23.9867 21.6941 24.1249 22.3997 24.4064C23.1053 24.6879 23.7477 25.1071 24.2895 25.6396C24.8313 26.1721 25.2616 26.8071 25.5552 27.5077C25.8489 28.2083 26.0001 28.9604 26 29.72" stroke="#2DBC55" stroke-width="3" stroke-miterlimit="10"/>
<path d="M20.18 20.18C22.2897 20.18 24 18.4697 24 16.36C24 14.2503 22.2897 12.54 20.18 12.54C18.0703 12.54 16.36 14.2503 16.36 16.36C16.36 18.4697 18.0703 20.18 20.18 20.18Z" stroke="#2DBC55" stroke-width="3" stroke-miterlimit="10"/>
</svg>
