<svg width="62" height="62" viewBox="0 0 62 62" fill="none" xmlns="http://www.w3.org/2000/svg">
<path d="M33.12 24.05C33.12 24.8775 32.7913 25.6711 32.2062 26.2562C31.6211 26.8413 30.8275 27.17 30 27.17C29.1725 27.17 28.3789 26.8413 27.7938 26.2562C27.2087 25.6711 26.88 24.8775 26.88 24.05C26.88 21.38 30 18.26 30 18.26C30 18.26 33.12 21.38 33.12 24.05Z" stroke="white" stroke-width="2" stroke-miterlimit="10"/>
<path d="M34.29 8.51V4.25H25.71V8.54C24.4523 8.95986 23.3592 9.76582 22.5862 10.8431C21.8133 11.9204 21.3999 13.2141 21.405 14.54V35.75H38.595V14.51C38.6001 13.1841 38.1867 11.8904 37.4138 10.8131C36.6408 9.73582 35.5477 8.92986 34.29 8.51Z" stroke="white" stroke-width="3" stroke-miterlimit="10"/>
<path d="M22.845 4.25H37.155" stroke="white" stroke-width="2" stroke-miterlimit="10"/>
<path d="M20.6817 54.6721H32.3367C34.2836 54.6721 36.1513 53.9017 37.5321 52.5292L44.7933 45.2679C45.2436 44.8403 45.5543 44.2868 45.6847 43.6797C45.8151 43.0727 45.7592 42.4404 45.5243 41.8656C45.2894 41.2908 44.8864 40.8004 44.3681 40.4584C43.8499 40.1165 43.2404 39.939 42.6196 39.9492C42.205 39.9427 41.7933 40.0199 41.4092 40.1762C41.0251 40.3325 40.6765 40.5646 40.3842 40.8588L32.4446 48.7983H31.0417C31.4706 48.8003 31.8947 48.7081 32.284 48.5282C32.6733 48.3483 33.0184 48.0851 33.2949 47.7572C33.5713 47.4293 33.7724 47.0447 33.8839 46.6305C33.9953 46.2164 34.0145 45.7828 33.94 45.3604C33.7896 44.6592 33.3994 44.0323 32.8366 43.5877C32.2738 43.1431 31.5737 42.9086 30.8567 42.9246H25.0908L23.6571 42.2C22.4248 41.5928 21.0448 41.3501 19.6793 41.5003C18.3138 41.6505 17.0196 42.1874 15.9487 43.0479C15.1202 43.7202 14.4552 44.5718 14.0039 45.5386C13.5526 46.5053 13.3267 47.562 13.3433 48.6288V48.7983" stroke="white" stroke-width="3" stroke-miterlimit="10"/>
<path d="M30.9646 48.7983H23.6263" stroke="white" stroke-width="3" stroke-miterlimit="10"/>
<circle cx="31" cy="31" r="31" fill="white" fill-opacity="0.09"/>
</svg>
