<svg width="50" height="40" viewBox="0 0 50 40" fill="none" xmlns="http://www.w3.org/2000/svg">
<path d="M22.67 35.7567H20.5033L12.3783 27.4583H8.21833C6.57089 27.4641 4.99254 28.121 3.82762 29.286C2.66269 30.4509 2.00571 32.0292 2 33.6767V39.9167" stroke="#2DBC55" stroke-width="3" stroke-miterlimit="10"/>
<path d="M8.21835 23.32C10.5159 23.32 12.3783 21.4575 12.3783 19.16C12.3783 16.8625 10.5159 15 8.21835 15C5.92084 15 4.05835 16.8625 4.05835 19.16C4.05835 21.4575 5.92084 23.32 8.21835 23.32Z" stroke="#2DBC55" stroke-width="3" stroke-miterlimit="10"/>
<path d="M27.0034 35.7567H29.17L37.4684 27.4583H41.6284C43.2758 27.4641 44.8541 28.121 46.0191 29.286C47.184 30.4509 47.841 32.0292 47.8467 33.6767V39.9167" stroke="#2DBC55" stroke-width="3" stroke-miterlimit="10"/>
<path d="M41.455 23.32C43.7525 23.32 45.615 21.4575 45.615 19.16C45.615 16.8625 43.7525 15 41.455 15C39.1575 15 37.295 16.8625 37.295 19.16C37.295 21.4575 39.1575 23.32 41.455 23.32Z" stroke="#2DBC55" stroke-width="3" stroke-miterlimit="10"/>
<path d="M26.7333 12.25C26.7333 12.7097 26.5507 13.1506 26.2256 13.4757C25.9006 13.8007 25.4597 13.9833 25 13.9833C24.5403 13.9833 24.0994 13.8007 23.7743 13.4757C23.4493 13.1506 23.2667 12.7097 23.2667 12.25C23.2667 10.7667 25 9.03333 25 9.03333C25 9.03333 26.7333 10.7667 26.7333 12.25Z" stroke="#2DBC55" stroke-width="2" stroke-miterlimit="10"/>
<path d="M27.3833 3.61667V1.25H22.6167V3.63333C21.918 3.86659 21.3107 4.31434 20.8812 4.91284C20.4518 5.51133 20.2222 6.23006 20.225 6.96667V18.75H29.775V6.95C29.7778 6.21339 29.5482 5.49467 29.1188 4.89617C28.6893 4.29768 28.082 3.84992 27.3833 3.61667Z" stroke="#2DBC55" stroke-width="2" stroke-miterlimit="10"/>
<path d="M21.025 1.25H28.975" stroke="#2DBC55" stroke-width="2" stroke-miterlimit="10"/>
</svg>
