<svg width="62" height="62" viewBox="0 0 62 62" fill="none" xmlns="http://www.w3.org/2000/svg">
<path d="M62 31C62 48.1208 48.1208 62 31 62C13.8792 62 0 48.1208 0 31C0 13.8792 13.8792 0 31 0C48.1208 0 62 13.8792 62 31Z" fill="white" fill-opacity="0.09"/>
<path d="M28.67 43.7567H26.5033L18.3783 35.4583H14.2183C12.5709 35.4641 10.9925 36.121 9.82762 37.286C8.66269 38.4509 8.00571 40.0292 8 41.6767V47.9167" stroke="white" stroke-width="3" stroke-miterlimit="10"/>
<path d="M14.2183 31.32C16.5159 31.32 18.3783 29.4575 18.3783 27.16C18.3783 24.8625 16.5159 23 14.2183 23C11.9208 23 10.0583 24.8625 10.0583 27.16C10.0583 29.4575 11.9208 31.32 14.2183 31.32Z" stroke="white" stroke-width="3" stroke-miterlimit="10"/>
<path d="M33.0034 43.7567H35.17L43.4684 35.4583H47.6284C49.2758 35.4641 50.8541 36.121 52.0191 37.286C53.184 38.4509 53.841 40.0292 53.8467 41.6767V47.9167" stroke="white" stroke-width="3" stroke-miterlimit="10"/>
<path d="M47.455 31.32C49.7525 31.32 51.615 29.4575 51.615 27.16C51.615 24.8625 49.7525 23 47.455 23C45.1575 23 43.295 24.8625 43.295 27.16C43.295 29.4575 45.1575 31.32 47.455 31.32Z" stroke="white" stroke-width="3" stroke-miterlimit="10"/>
<path d="M32.7333 20.25C32.7333 20.7097 32.5507 21.1506 32.2256 21.4757C31.9006 21.8007 31.4597 21.9833 31 21.9833C30.5403 21.9833 30.0994 21.8007 29.7743 21.4757C29.4493 21.1506 29.2667 20.7097 29.2667 20.25C29.2667 18.7667 31 17.0333 31 17.0333C31 17.0333 32.7333 18.7667 32.7333 20.25Z" stroke="white" stroke-width="2" stroke-miterlimit="10"/>
<path d="M33.3833 11.6167V9.25H28.6167V11.6333C27.918 11.8666 27.3107 12.3143 26.8812 12.9128C26.4518 13.5113 26.2222 14.2301 26.225 14.9667V26.75H35.775V14.95C35.7778 14.2134 35.5482 13.4947 35.1188 12.8962C34.6893 12.2977 34.082 11.8499 33.3833 11.6167Z" stroke="white" stroke-width="2" stroke-miterlimit="10"/>
<path d="M27.025 9.25H34.975" stroke="white" stroke-width="2" stroke-miterlimit="10"/>
</svg>
