<svg width="46" height="46" viewBox="0 0 46 46" fill="none" xmlns="http://www.w3.org/2000/svg">
<path d="M10.2158 41.2275H13.8383L17.4608 43.0292H28.8458C30.194 43.0354 31.4958 42.5375 32.4958 41.6332C33.4958 40.729 34.1218 39.4837 34.2508 38.1417L35.5542 25.0892C35.5637 24.9744 35.5637 24.859 35.5542 24.7442C35.5542 24.2911 35.4649 23.8425 35.2915 23.4239C35.1182 23.0053 34.864 22.625 34.5437 22.3046C34.2233 21.9843 33.843 21.7302 33.4244 21.5568C33.0058 21.3834 32.5572 21.2942 32.1042 21.2942H24.7058L24.8975 20.9108C25.9663 18.7813 26.5241 16.4319 26.5267 14.0492C26.527 13.1048 26.1585 12.1976 25.4998 11.521C24.841 10.8443 23.944 10.4516 23 10.4267C22.0392 10.4267 21.1178 10.8083 20.4385 11.4877C19.7591 12.167 19.3775 13.0884 19.3775 14.0492C19.3778 15.1993 19.1511 16.3382 18.7103 17.4006C18.2696 18.4629 17.6235 19.4278 16.8092 20.24L13.9342 23.0958H10.2158" stroke="#1DBC4A" stroke-width="3" stroke-miterlimit="10"/>
<path d="M10.2158 21.2942H2.97083V43.0292H10.2158V21.2942Z" stroke="#1DBC4A" stroke-width="3" stroke-miterlimit="10"/>
<path d="M35.5733 6.80417L36.7617 9.18084L39.3875 9.56417L37.49 11.4233L37.9308 14.0492L35.5733 12.8033L33.235 14.0492L33.6758 11.4233L31.7783 9.56417L34.4042 9.18084L35.5733 6.80417Z" stroke="#1DBC4A" stroke-width="2" stroke-miterlimit="10"/>
</svg>
